<svg
    version="1.1"
    id="Layer_1"
    xmlns="http://www.w3.org/2000/svg"
    x="0px"
    y="0px"
    viewBox="0 0 792 612"
    >
    <g>
        <path
        className="st0"
        d="M175.04,489.51c-60.46,0-109.65-49.19-109.65-109.65V234.21c0-60.46,49.19-109.65,109.65-109.65
    s109.65,49.19,109.65,109.65v145.65C284.69,440.32,235.5,489.51,175.04,489.51z M175.04,128.23
    c-58.44,0-105.98,47.54-105.98,105.98v145.65c0,58.44,47.54,105.99,105.98,105.99s105.98-47.55,105.98-105.99V234.21
    C281.02,175.77,233.48,128.23,175.04,128.23z"
        />
        <path
        className="st0"
        d="M178.7,502.97h-5.39c-66.14,0-119.94-53.81-119.94-119.94V232.3c0-66.14,53.8-119.94,119.94-119.94h5.39
    c66.14,0,119.94,53.8,119.94,119.94v150.72C298.64,449.16,244.84,502.97,178.7,502.97z M173.31,116.03
    c-64.11,0-116.27,52.16-116.27,116.27v150.72c0,64.12,52.16,116.28,116.27,116.28h5.39c64.11,0,116.27-52.16,116.27-116.28V232.3
    c0-64.11-52.16-116.27-116.27-116.27H173.31z"
        />
        <path
        className="st0"
        d="M216.15,181.49c4.81,4.81,8.48,10.27,11.01,16.41c2.53,6.13,3.8,12.58,3.8,19.33v13.41
    c0,6.73-1.27,13.16-3.8,19.29c-2.54,6.13-6.21,11.6-11.01,16.41c-8.45,8.33-18.5,13.17-30.15,14.51c-0.67,0.06-3.37,0.11-8.11,0.15
    c-4.73,0.04-10.09,0.09-16.08,0.13s-13.6,0.09-22.83,0.15c0.9,0,1.63-0.49,2.19-1.49c0.55-0.99,0.98-2.24,1.29-3.74
    c0.31-1.5,0.52-3.07,0.63-4.7c0.03-0.61,0.04-5.72,0.04-15.31c0-9.6,0-20.3,0-32.09c0-11.8,0-22.5,0-32.09
    c0-9.6-0.01-14.7-0.04-15.31c-0.12-1.63-0.33-3.19-0.63-4.68c-0.31-1.48-0.74-2.72-1.29-3.71c-0.55-0.99-1.28-1.48-2.19-1.48h41.42
    c3.2,0,6.35,0.29,9.44,0.87C199.92,169.47,208.69,174.12,216.15,181.49z M176.91,168.43h-18.26c-0.03,0-0.07,0.05-0.11,0.15
    c-0.04,0.1-0.1,0.24-0.15,0.39c-0.06,0.16-0.12,0.31-0.2,0.46c-0.07,0.15-0.12,0.26-0.15,0.35c-0.61,1.89-1.01,4.04-1.18,6.42
    c-0.06,0.7-0.1,1.38-0.13,2.05c0,0.55,0,5.31,0,14.27c0,8.96-0.01,19.31-0.02,31.07c-0.02,11.75-0.02,26.78-0.02,45.07
    c0,0.12,0.01,0.38,0.04,0.79c0.03,0.41,0.06,0.82,0.09,1.25c0.03,0.42,0.04,0.76,0.04,1.03c0.17,2.39,0.57,4.53,1.18,6.42
    c0.06,0.17,0.13,0.37,0.22,0.59c0.09,0.22,0.17,0.4,0.24,0.55c0.07,0.15,0.12,0.22,0.15,0.22l21.76-0.09
    c0.87,0,1.75-0.03,2.64-0.09c0.89-0.06,1.66-0.12,2.32-0.18c0.66-0.06,1.03-0.09,1.11-0.09c2.12-0.44,3.92-1.06,5.37-1.86
    c1.46-0.8,2.37-1.36,2.75-1.68c0.03-0.03,0.05-0.05,0.07-0.07c0.01-0.01,0.03-0.03,0.04-0.04c0.01-0.02,0.04-0.02,0.07-0.02
    c4.16-3.26,7.77-7.11,10.81-11.56s5.41-9.33,7.1-14.66c1.69-5.33,2.53-10.95,2.53-16.86v-14.38c0-6.73-1.09-13.09-3.25-19.07
    c-2.17-5.99-5.19-11.34-9.07-16.06c-3.87-4.72-8.4-8.61-13.59-11.67c-1.6-0.87-3.18-1.5-4.74-1.88c-1.56-0.38-2.86-0.61-3.91-0.7
    c0-0.03,0-0.03,0,0C179.48,168.47,178.23,168.43,176.91,168.43z"
        />
        <path
        className="st0"
        d="M216.15,358.18c4.81,4.81,8.48,10.27,11.01,16.41c2.53,6.13,3.8,12.58,3.8,19.33v13.41
    c0,6.73-1.27,13.16-3.8,19.29c-2.54,6.13-6.21,11.6-11.01,16.41c-8.45,8.33-18.5,13.17-30.15,14.51c-0.67,0.06-3.37,0.11-8.11,0.15
    c-4.73,0.04-10.09,0.09-16.08,0.13s-13.6,0.09-22.83,0.15c0.9,0,1.63-0.49,2.19-1.49c0.55-0.99,0.98-2.24,1.29-3.74
    c0.31-1.5,0.52-3.07,0.63-4.7c0.03-0.61,0.04-5.72,0.04-15.31c0-9.6,0-20.3,0-32.09c0-11.8,0-22.5,0-32.09s-0.01-14.7-0.04-15.31
    c-0.12-1.63-0.33-3.19-0.63-4.68c-0.31-1.48-0.74-2.72-1.29-3.71c-0.55-0.99-1.28-1.48-2.19-1.48h41.42c3.2,0,6.35,0.29,9.44,0.87
    C199.92,346.16,208.69,350.81,216.15,358.18z M176.91,345.12h-18.26c-0.03,0-0.07,0.05-0.11,0.15c-0.04,0.1-0.1,0.24-0.15,0.39
    s-0.12,0.31-0.2,0.46c-0.07,0.15-0.12,0.26-0.15,0.35c-0.61,1.89-1.01,4.04-1.18,6.42c-0.06,0.7-0.1,1.38-0.13,2.05
    c0,0.55,0,5.31,0,14.27c0,8.96-0.01,19.31-0.02,31.07c-0.02,11.75-0.02,26.78-0.02,45.07c0,0.12,0.01,0.38,0.04,0.79
    c0.03,0.41,0.06,0.82,0.09,1.25c0.03,0.42,0.04,0.76,0.04,1.03c0.17,2.39,0.57,4.53,1.18,6.42c0.06,0.17,0.13,0.37,0.22,0.59
    c0.09,0.22,0.17,0.4,0.24,0.55c0.07,0.15,0.12,0.22,0.15,0.22l21.76-0.09c0.87,0,1.75-0.03,2.64-0.09
    c0.89-0.06,1.66-0.12,2.32-0.18c0.66-0.06,1.03-0.09,1.11-0.09c2.12-0.44,3.92-1.06,5.37-1.86c1.46-0.8,2.37-1.36,2.75-1.68
    c0.03-0.03,0.05-0.05,0.07-0.07c0.01-0.01,0.03-0.03,0.04-0.04c0.01-0.02,0.04-0.02,0.07-0.02c4.16-3.26,7.77-7.11,10.81-11.56
    s5.41-9.33,7.1-14.66c1.69-5.33,2.53-10.95,2.53-16.86v-14.38c0-6.73-1.09-13.09-3.25-19.07c-2.17-5.99-5.19-11.34-9.07-16.06
    s-8.4-8.61-13.59-11.67c-1.6-0.87-3.18-1.5-4.74-1.88c-1.56-0.38-2.86-0.61-3.91-0.7c0-0.03,0-0.03,0,0
    C179.48,345.16,178.23,345.12,176.91,345.12z"
        />
        <path
        className="st0"
        d="M243.77,311.31h-61.38c-0.54-1.51-1.95-2.61-3.65-2.61c-1.7,0-3.11,1.1-3.65,2.61h-61.38v2.6h61.38
    c0.54,1.51,1.95,2.61,3.65,2.61c1.7,0,3.11-1.1,3.65-2.61h61.38V311.31z"
        />
    </g>
</svg>
